<svg xmlns="http://www.w3.org/2000/svg" fill="none" viewBox="0 0 78 97">
  <path fill="#FF4A8B" d="M59.883 89.995l-4.875-43.867a4.99 4.99 0 0 0-4.991-4.992H10.083a4.99 4.99 0 0 0-4.991 4.992L.217 89.995A5.093 5.093 0 0 0 .1 91.053a4.99 4.99 0 0 0 4.992 4.992h49.916A4.99 4.99 0 0 0 60 91.052c0-.364-.045-.716-.117-1.058zm-17.354-36.61v2.726c0 6.881-5.598 12.48-12.479 12.48-6.881 0-12.48-5.599-12.48-12.48v-2.725a3.732 3.732 0 0 1-2.495-3.514 3.745 3.745 0 0 1 3.744-3.744 3.745 3.745 0 0 1 3.744 3.744v6.24c0 4.127 3.359 7.487 7.487 7.487s7.488-3.36 7.488-7.488v-6.24a3.745 3.745 0 0 1 3.743-3.743 3.745 3.745 0 0 1 3.744 3.744c0 1.627-1.046 3-2.496 3.514z"/>
  <path fill="#5561D3" fill-rule="evenodd" d="M30.595 7.815c1.856-2.834 5.137-4.6 8.542-4.009 4.6.779 7.117 5.446 7.77 9.756.295 1.816.424 3.62.438 5.454.006.712-.03 1.43-.064 2.15-.056 1.13-.111 2.264-.009 3.375.062.669.136 1.335.21 2 .294 2.64.586 5.254.05 7.904-.214 1.08-1.314 1.263-2.076.85-2.059.326-4.298-.257-6.254-.792-.564-.16-1.132-.315-1.701-.47-1.87-.513-3.748-1.028-5.546-1.68-3.029-1.109-5.996-2.411-8.663-4.256-2.059-1.418-4.236-3.002-5.282-5.332-.862-1.974-1.396-4.312-.607-6.4.802-2.126 2.451-4.176 4.698-4.824 2.578-.755 5.09.105 7.315 1.534-.193-1.805.114-3.642 1.18-5.26z" clip-rule="evenodd"/>
  <path fill="#FF4A8B" fill-rule="evenodd" d="M69.871 15.383c2.289.289 4.35 1.768 5.007 4.029.899 3.048-1.205 5.983-3.647 7.67a24.124 24.124 0 0 1-3.206 1.9c-.435.216-.885.41-1.335.603-.71.304-1.42.61-2.069 1.004-.39.238-.776.482-1.16.726-1.529.97-3.04 1.93-4.822 2.394-.725.192-1.166-.427-1.142-1.016-.814-1.163-1.127-2.707-1.384-4.064-.072-.393-.146-.787-.22-1.182-.246-1.297-.493-2.6-.632-3.896-.226-2.185-.316-4.39.015-6.573.253-1.684.57-3.49 1.684-4.827.95-1.117 2.221-2.143 3.735-2.284 1.541-.145 3.288.251 4.356 1.432 1.233 1.352 1.458 3.146 1.249 4.935 1.046-.657 2.262-1.02 3.571-.85z" clip-rule="evenodd"/>
</svg>
