<svg width="381" height="102" viewBox="0 0 381 102" fill="none" xmlns="http://www.w3.org/2000/svg">
<path d="M24.8759 101.5C21.3617 101.5 18.6908 101.254 16.8634 100.762C15.1063 100.27 13.6654 99.8134 12.5408 99.3917C11.4866 99.0403 10.5728 98.6537 9.7997 98.232C9.02656 97.8806 8.28856 97.494 7.5857 97.0723C4.49314 95.034 3.33343 93.558 4.10657 92.6443L6.84771 88.7434C7.26942 88.1109 7.86685 88.0757 8.63999 88.638C8.71027 88.638 8.92113 88.7786 9.27256 89.0597C9.69427 89.4111 10.0808 89.7274 10.4323 90.0086C10.854 90.2897 11.3811 90.606 12.0137 90.9574C12.7165 91.3792 13.4897 91.7306 14.3331 92.0117C15.1765 92.3631 16.0903 92.6794 17.0742 92.9606C19.3937 93.5931 21.9591 93.9094 24.7705 93.9094C29.8311 93.9094 33.8725 92.6794 36.8948 90.2194C39.9873 87.8297 41.5336 84.0343 41.5336 78.8332V66.8144C40.2685 69.7664 38.1599 72.2966 35.2079 74.4052C32.3262 76.5138 28.7065 77.568 24.3488 77.568C17.1797 77.568 11.4163 75.0729 7.05857 70.0826C2.77115 65.0924 0.627441 58.6261 0.627441 50.6838C0.627441 42.7416 2.80629 36.3456 7.16399 31.4959C11.592 26.6462 17.3202 24.2214 24.3488 24.2214C28.7065 24.2214 32.3613 25.2405 35.3133 27.2788C38.3356 29.2468 40.5145 31.6716 41.8499 34.5533H42.0607L41.9553 26.2245C41.9553 25.3811 42.377 24.9594 43.2204 24.9594H55.661C56.5044 24.9594 56.9261 25.3811 56.9261 26.2245V30.7579C56.9261 31.6013 56.5044 32.023 55.661 32.023H49.9679V78.8332C49.9679 86.3537 47.6484 92.0117 43.0096 95.8071C38.441 99.6025 32.3965 101.5 24.8759 101.5ZM9.27256 50.8947C9.27256 56.6581 10.8188 61.3321 13.9114 64.9167C17.004 68.4309 20.8697 70.1881 25.5085 70.1881C30.1473 70.1881 33.9779 68.4309 37.0002 64.9167C40.0927 61.4024 41.639 56.6933 41.639 50.7893C41.639 44.8853 40.0927 40.2113 37.0002 36.7673C33.9779 33.3233 30.1473 31.6013 25.5085 31.6013C20.8697 31.6013 17.004 33.3585 13.9114 36.8727C10.8188 40.387 9.27256 45.061 9.27256 50.8947Z" fill="white"/>
<path d="M109.729 51.949H71.775C72.0562 57.7827 73.8836 62.2809 77.2573 65.4438C80.7013 68.6066 84.567 70.1881 88.8544 70.1881C93.1418 70.1881 96.7967 69.2744 99.8189 67.4469C102.911 65.6195 104.985 63.8272 106.039 62.0701C106.601 61.3672 107.234 61.2618 107.937 61.7538L110.783 64.6004C111.205 65.0221 111.416 65.4087 111.416 65.7601C111.416 66.0412 111.24 66.4278 110.889 66.9198C110.608 67.4118 109.975 68.1849 108.991 69.2392C108.007 70.2935 106.601 71.4883 104.774 72.8238C103.017 74.1592 100.698 75.2838 97.8158 76.1975C95.0044 77.1112 91.9821 77.568 88.749 77.568C81.369 77.568 75.1839 75.1432 70.1936 70.2935C65.2736 65.4438 62.8136 58.9424 62.8136 50.7893C62.8136 42.5659 65.2736 36.0996 70.1936 31.3905C75.1136 26.6111 81.123 24.2214 88.2218 24.2214C95.3909 24.2214 101.014 26.5408 105.09 31.1796C109.167 35.7482 111.205 41.9333 111.205 49.735C111.205 50.0161 111.205 50.2973 111.205 50.5784C111.205 51.4921 110.713 51.949 109.729 51.949ZM102.455 45.5179C102.244 41.1602 100.873 37.681 98.3429 35.0805C95.8127 32.4799 92.4389 31.1796 88.2218 31.1796C84.0047 31.1796 80.385 32.3745 77.3627 34.7642C74.3404 37.1539 72.5482 40.7384 71.9859 45.5179H102.455Z" fill="white"/>
<path d="M207.149 76.83H187.012C186.098 76.83 185.642 76.4083 185.642 75.5649V71.0315C185.642 70.1881 186.098 69.7663 187.012 69.7663H192.811V32.023H187.012C186.098 32.023 185.642 31.6013 185.642 30.7579V26.2245C185.642 25.3811 186.098 24.9594 187.012 24.9594H199.347C200.261 24.9594 200.718 25.3811 200.718 26.2245V39.403H201.034C201.245 38.2785 201.983 36.7322 203.248 34.7642C204.513 32.7962 205.884 31.1796 207.36 29.9145C208.906 28.5791 211.085 27.3842 213.896 26.3299C216.778 25.2756 220.011 24.7485 223.596 24.7485C224.51 24.7485 224.966 25.2054 224.966 26.1191V31.7068C224.966 32.6205 224.51 33.0773 223.596 33.0773H221.382C215.337 33.0773 210.523 35.0102 206.938 38.8759C203.354 42.7416 201.561 47.1344 201.561 52.0544V69.7663H207.149C208.063 69.7663 208.52 70.1881 208.52 71.0315V75.5649C208.52 76.4083 208.063 76.83 207.149 76.83Z" fill="white"/>
<path d="M275.284 51.949H237.33C237.611 57.7827 239.439 62.2809 242.813 65.4438C246.257 68.6066 250.122 70.1881 254.41 70.1881C258.697 70.1881 262.352 69.2744 265.374 67.4469C268.467 65.6195 270.54 63.8272 271.594 62.0701C272.157 61.3672 272.789 61.2618 273.492 61.7538L276.339 64.6004C276.76 65.0221 276.971 65.4087 276.971 65.7601C276.971 66.0412 276.796 66.4278 276.444 66.9198C276.163 67.4118 275.53 68.1849 274.546 69.2392C273.562 70.2935 272.157 71.4883 270.329 72.8238C268.572 74.1592 266.253 75.2838 263.371 76.1975C260.56 77.1112 257.537 77.568 254.304 77.568C246.924 77.568 240.739 75.1432 235.749 70.2935C230.829 65.4438 228.369 58.9424 228.369 50.7893C228.369 42.5659 230.829 36.0996 235.749 31.3905C240.669 26.6111 246.678 24.2214 253.777 24.2214C260.946 24.2214 266.569 26.5408 270.646 31.1796C274.722 35.7482 276.76 41.9333 276.76 49.735C276.76 50.0161 276.76 50.2973 276.76 50.5784C276.76 51.4921 276.268 51.949 275.284 51.949ZM268.01 45.5179C267.799 41.1602 266.428 37.681 263.898 35.0805C261.368 32.4799 257.994 31.1796 253.777 31.1796C249.56 31.1796 245.94 32.3745 242.918 34.7642C239.896 37.1539 238.103 40.7384 237.541 45.5179H268.01Z" fill="white"/>
<path d="M310.507 76.83H286.68C285.766 76.83 285.309 76.4083 285.309 75.5649V71.0315C285.309 70.1881 285.766 69.7663 286.68 69.7663H292.478V32.023H286.469C285.555 32.023 285.098 31.6013 285.098 30.7579V26.2245C285.098 25.3811 285.555 24.9594 286.469 24.9594H292.478V18.4228C292.478 12.5891 293.954 8.16112 296.906 5.13884C299.929 2.04628 304.111 0.5 309.452 0.5C313.388 0.5 316.938 1.90571 320.1 4.71713C320.522 5.06856 320.733 5.41999 320.733 5.77141C320.733 6.05256 320.628 6.29855 320.417 6.50941L317.887 9.77768C317.254 10.4103 316.657 10.4805 316.094 9.98854C314.407 8.65312 312.299 7.9854 309.769 7.9854C307.238 7.9854 305.165 8.89911 303.548 10.7265C302.002 12.4837 301.229 15.0842 301.229 18.5282V24.9594H314.724C315.637 24.9594 316.094 25.3811 316.094 26.2245V30.7579C316.094 31.6013 315.637 32.023 314.724 32.023H301.229V69.7663H310.507C311.35 69.7663 311.772 70.1881 311.772 71.0315V75.5649C311.772 76.4083 311.35 76.83 310.507 76.83Z" fill="white"/>
<path d="M347.939 75.6703C346.814 75.6703 345.9 74.7918 345.197 73.0346L329.067 32.023H323.268C322.425 32.023 322.003 31.6013 322.003 30.7579V26.2245C322.003 25.3811 322.425 24.9594 323.268 24.9594H342.351C343.265 24.9594 343.721 25.3811 343.721 26.2245V30.7579C343.721 31.6013 343.265 32.023 342.351 32.023H338.028L351.629 67.7632H351.839L364.491 32.023H359.746C358.903 32.023 358.481 31.6013 358.481 30.7579V26.2245C358.481 25.3811 358.903 24.9594 359.746 24.9594H379.356C380.2 24.9594 380.621 25.3811 380.621 26.2245V30.7579C380.621 31.6013 380.2 32.023 379.356 32.023H373.452L354.686 83.5775C352.366 89.8329 349.942 94.3663 347.411 97.1777C344.951 100.059 341.543 101.5 337.185 101.5C332.897 101.5 329.207 100.13 326.115 97.3885C325.412 96.6857 325.307 96.0531 325.799 95.4909L328.434 92.1171C329.067 91.6251 329.699 91.59 330.332 92.0117C332.019 93.3471 334.022 94.0148 336.341 94.0148C338.661 94.0148 340.559 93.2066 342.035 91.59C343.581 90.0437 345.057 87.3377 346.463 83.472L349.309 75.6703H347.939Z" fill="white"/>
<path d="M149.712 19.6423C134.777 19.6423 122.623 31.7964 122.623 46.7315V70.8108C122.623 74.1368 125.317 76.8306 128.643 76.8306H137.673V55.7613H128.643V46.7315C128.643 35.1133 138.094 25.6622 149.712 25.6622C161.331 25.6622 170.782 35.1133 170.782 46.7315V55.7613H161.752V76.8306H170.782C174.108 76.8306 176.801 74.1368 176.801 70.8108V46.7315C176.801 31.7964 164.647 19.6423 149.712 19.6423Z" fill="#1ED760"/>
<path d="M116.73 30.3127H122.807V45.8099L127.601 49.6536L128.761 34.9686V31.6833L128.972 24.5142C128.972 23.6707 128.515 23.249 127.601 23.249H116.73C115.817 23.249 115.36 23.6707 115.36 24.5142V29.0476C115.36 29.891 115.817 30.3127 116.73 30.3127Z" fill="#1ED760"/>
</svg>
