<svg width="45" height="45" viewBox="0 0 45 45" fill="none" xmlns="http://www.w3.org/2000/svg">
<path d="M22.6642 0.417237C18.2792 0.418284 13.993 1.71965 10.3476 4.15677C6.70219 6.59388 3.86137 10.0573 2.18438 14.109C0.507396 18.1606 0.0695656 22.6186 0.926261 26.9191C1.78296 31.2197 3.8957 35.1696 6.9973 38.2693C10.0989 41.3691 14.0501 43.4795 18.3511 44.3336C22.6521 45.1877 27.1099 44.7472 31.1605 43.0678C35.2112 41.3884 38.6729 38.5455 41.1078 34.8987C43.5428 31.2518 44.8416 26.9648 44.84 22.5798C44.8379 16.7003 42.5004 11.0624 38.3418 6.90615C34.1831 2.74994 28.5438 0.415833 22.6642 0.417237ZM32.8296 32.393C32.7351 32.5482 32.611 32.6832 32.4643 32.7903C32.3176 32.8975 32.1513 32.9747 31.9747 33.0174C31.7982 33.0602 31.6149 33.0678 31.4355 33.0397C31.256 33.0116 31.0839 32.9484 30.9289 32.8537C25.7244 29.677 19.1725 28.9517 11.4559 30.7147C11.2766 30.7625 11.0895 30.7737 10.9057 30.7476C10.722 30.7215 10.5454 30.6587 10.3865 30.5629C10.2276 30.4671 10.0896 30.3403 9.98073 30.19C9.87189 30.0397 9.79443 29.869 9.75299 29.6881C9.71155 29.5072 9.70697 29.3198 9.73952 29.1371C9.77206 28.9544 9.84108 28.7802 9.94244 28.6247C10.0438 28.4693 10.1754 28.3358 10.3295 28.2324C10.4835 28.1289 10.6569 28.0575 10.8391 28.0225C19.2837 26.09 26.5292 26.9212 32.3716 30.4923C32.5272 30.5864 32.6627 30.7102 32.7704 30.8567C32.878 31.0032 32.9557 31.1694 32.999 31.346C33.0423 31.5226 33.0503 31.7059 33.0226 31.8856C32.9949 32.0653 32.932 32.2377 32.8375 32.393H32.8296ZM35.543 26.3574C35.424 26.5513 35.2679 26.7198 35.0838 26.8534C34.8996 26.9869 34.6909 27.0829 34.4697 27.1357C34.2484 27.1886 34.0189 27.1973 33.7943 27.1614C33.5696 27.1255 33.3543 27.0457 33.1605 26.9265C27.2016 23.2628 18.119 22.2039 11.0694 24.3428C10.8521 24.4087 10.624 24.4312 10.3981 24.4089C10.1721 24.3866 9.95277 24.32 9.75255 24.213C9.34819 23.9968 9.04628 23.6288 8.91323 23.19C8.78019 22.7512 8.82691 22.2775 9.04311 21.8731C9.25931 21.4688 9.62729 21.1669 10.0661 21.0338C18.1163 18.5931 28.1255 19.7764 34.9685 23.9802C35.3609 24.2183 35.6426 24.6025 35.7518 25.0482C35.861 25.494 35.7887 25.9649 35.5509 26.3574H35.543ZM35.7759 20.0702C28.6284 15.8347 16.843 15.4376 10.0211 17.5077C9.49453 17.6671 8.92622 17.6108 8.44119 17.3511C7.95615 17.0915 7.59413 16.6498 7.43476 16.1232C7.27538 15.5966 7.33171 15.0283 7.59136 14.5433C7.851 14.0583 8.29269 13.6962 8.81926 13.5369C16.6497 11.1544 29.6661 11.6176 37.8937 16.5018C38.1278 16.6408 38.3323 16.8246 38.4954 17.0427C38.6585 17.2608 38.777 17.5088 38.8443 17.7727C38.9115 18.0366 38.9261 18.3111 38.8872 18.5807C38.8484 18.8502 38.7568 19.1094 38.6177 19.3436C38.4787 19.5777 38.2949 19.7821 38.0768 19.9452C37.8587 20.1083 37.6107 20.2269 37.3468 20.2941C37.0829 20.3614 36.8083 20.376 36.5388 20.3371C36.2693 20.2982 36.0101 20.2066 35.7759 20.0676V20.0702Z" fill="white"/>
</svg>
